<?xml version="1.0" standalone="no"?><!DOCTYPE svg PUBLIC "-//W3C//DTD SVG 1.1//EN" "http://www.w3.org/Graphics/SVG/1.1/DTD/svg11.dtd"><svg class="icon" width="60px" height="60.00px" viewBox="0 0 1024 1024" version="1.1" xmlns="http://www.w3.org/2000/svg"><path d="M512 512m-512 0a512 512 0 1 0 1024 0 512 512 0 1 0-1024 0Z" fill="#0BBA6E" /><path d="M728.405333 749.994667a21.589333 21.589333 0 0 1-15.189333-6.314667l-209.92-209.92-209.834667 209.92a21.333333 21.333333 0 0 1-30.208 0 21.333333 21.333333 0 0 1-0.256-30.464l209.92-209.92-209.92-209.834667a21.674667 21.674667 0 0 1 15.36-36.693333c5.632 0 11.093333 2.218667 15.104 6.229333l209.92 209.92 209.834667-209.92a21.418667 21.418667 0 0 1 30.464 0 21.589333 21.589333 0 0 1 0 30.464l-209.92 209.92 209.92 209.834667a21.589333 21.589333 0 0 1-15.274667 36.778667z" fill="#FFFFFF" /></svg>